<svg id="icons" xmlns="http://www.w3.org/2000/svg" viewBox="0 0 128 128"><defs><style>.cls-1{fill:#ffe300;}.cls-2{fill:#303442;opacity:0.08;}.cls-3{fill:#92d5ed;}.cls-4{fill:none;stroke:#303442;stroke-linecap:round;stroke-linejoin:round;stroke-width:4px;}</style></defs><title>play</title><path class="cls-1" d="M64,18A46,46,0,1,1,18,64,45.99373,45.99373,0,0,1,64,18ZM83.01,65.7a1.9546,1.9546,0,0,0,0-3.4L55,46.27a1.99647,1.99647,0,0,0-3,1.7V80.03a1.99647,1.99647,0,0,0,3,1.7Z"/><path class="cls-2" d="M64,100A45.99494,45.99494,0,0,1,18.275,59,46.49952,46.49952,0,0,0,18,64a46,46,0,0,0,92,0,46.49952,46.49952,0,0,0-.275-5A45.99494,45.99494,0,0,1,64,100Z"/><path class="cls-3" d="M83.01,62.3a1.9546,1.9546,0,0,1,0,3.4L55,81.73a1.99647,1.99647,0,0,1-3-1.7V47.97a1.99647,1.99647,0,0,1,3-1.7Z"/><circle class="cls-4" cx="64" cy="64" r="46"/><path class="cls-4" d="M83.01,65.7,55,81.73a1.99647,1.99647,0,0,1-3-1.7V47.97a1.99647,1.99647,0,0,1,3-1.7L83.01,62.3A1.9546,1.9546,0,0,1,83.01,65.7Z"/></svg>